#N canvas 509 148 651 515 10;
#X obj 42 40 hsl 128 15 20 2000 1 0 empty empty pitch -2 -8 0 10 -262144
-1 -1 9300 1;
#X obj 199 39 hsl 128 15 0 1000 0 0 empty empty feedback -2 -8 0 10
-262144 -1 -1 8800 1;
#N canvas 783 248 450 300 feedbacked_fm 0;
#X obj 104 201 outlet~;
#X obj 105 127 osc~;
#X obj 106 177 *~ 0.2;
#X obj 174 32 delwrite~ fbk 500;
#X obj 195 82 inlet;
#X obj 174 60 delread~ fbk 1;
#X obj 173 107 *~;
#X obj 105 106 +~;
#X obj 102 32 inlet;
#X connect 1 0 2 0;
#X connect 1 0 3 0;
#X connect 2 0 0 0;
#X connect 4 0 6 1;
#X connect 5 0 6 0;
#X connect 6 0 7 0;
#X connect 7 0 1 0;
#X connect 8 0 7 1;
#X restore 39 99 pd feedbacked_fm;
#X obj 39 158 *~ 0.2;
#X obj 39 192 dac~;
#X floatatom 52 64 5 0 0 0 - - -, f 5;
#X floatatom 216 64 5 0 0 0 - - -, f 5;
#X connect 0 0 2 0;
#X connect 0 0 5 0;
#X connect 1 0 6 0;
#X connect 1 0 2 1;
#X connect 2 0 3 0;
#X connect 3 0 4 0;
#X connect 3 0 4 1;
